<?xml version="1.0"?>
<svg xmlns="http://www.w3.org/2000/svg" viewBox="130 95 730 100" width="1460" height="200">
  <g fill="#111827">

  <path d="M170,168.5c1,5.7,4.9,9.4,16.1,9.4c9.9,0,15.6-2.3,15.6-7.1c0-3.7-1.9-5.2-12.3-6.6l-19.7-2.7c-13.8-1.9-21.7-6.1-21.7-18.7c0-17.8,18.1-22.2,36.1-22.2c30.4,0,37.5,10,39,22.3h-23.9c-1.2-6.8-8.4-8.7-14.6-8.7c-5.7,0-14.1,0.5-14.1,7c0,3.1,1.6,5.2,10.9,6.1l15,1.6c22,2.3,29.2,8.9,29.2,20.3c0,19.6-21.9,22.3-40.7,22.3c-25,0-37.7-7.3-38.8-22.9L170,168.5L170,168.5z"></path>
  <path d="M243.6,102.6h21.7V123h17.5v14.5h-17.5v30.8c0,5.2,1.6,6.9,7.3,6.9c3.8,0,7.1-0.2,10.6-0.5v14.5c-4.1,0.5-12.2,1.2-17,1.2c-20.5,0-22.5-7.6-22.5-19.6v-33.4H230V123h13.7C243.6,123,243.6,102.6,243.6,102.6z"></path>
  <path d="M291.4,143.2c2.6-20.3,21.3-22.6,39-22.6c31,0,37.7,10.1,37.7,22.4v32.7c0,5.8,1,10,2.5,13.3h-21.7c-0.7-2.3-1.4-4.7-1.5-7c-7.4,7.4-21.2,9.5-30.9,9.5c-17.2,0-29.3-6-29.3-21.4s14.1-19.4,27.3-20.3l23-1.6c6.6-0.5,8.9-1.6,8.9-6.9s-4.4-7.9-17-7.9c-9.2,0-14,0.7-17.1,9.8L291.4,143.2L291.4,143.2z M347.2,156.9c-4.1,2-8.5,2.5-12.8,2.8l-12.5,1.1c-7.6,0.6-11.4,2.7-11.4,8.6s5.5,9.2,13.7,9.2c11,0,23.1-5.3,23.1-16.4L347.2,156.9L347.2,156.9z"></path>
  <path d="M440.8,147.4c-2.6-8.7-9.2-11.6-18-11.6c-13.4,0-21.2,7.3-21.2,20.2s7.8,20.2,21.2,20.2c9.6,0,16.9-5.2,18-13.4h22.4c-3.9,23.4-20.7,28.7-42.2,28.7c-24.9,0-41.7-10.6-41.7-35.4s17.5-35.4,43.6-35.4c16.7,0,36.3,5.1,40.4,26.8L440.8,147.4L440.8,147.4z"></path>
  <path d="M473.6,99.6h21.7v48L524,123h30l-31.4,25.1L556,189h-28.7l-21.5-27.4l-10.6,8.5V189h-21.7C473.6,189,473.6,99.6,473.6,99.6z"></path>
  <path d="M562.4,99.6h21.7V189h-21.7V99.6z"></path>
  <path d="M599.1,143.2c2.6-20.3,21.3-22.6,39-22.6c31,0,37.7,10.1,37.7,22.4v32.7c0,5.8,1,10,2.5,13.3h-21.7c-0.7-2.3-1.3-4.7-1.5-7c-7.4,7.4-21.2,9.5-30.9,9.5c-17.2,0-29.3-6-29.3-21.4s14.2-19.4,27.3-20.3l23-1.6c6.7-0.5,8.9-1.6,8.9-6.9s-4.4-7.9-17-7.9c-9.2,0-14,0.7-17.1,9.8L599.1,143.2L599.1,143.2z M654.8,156.9c-4.1,2-8.5,2.5-12.8,2.8l-12.5,1.1c-7.6,0.6-11.4,2.7-11.4,8.6s5.5,9.2,13.7,9.2c11,0,23.1-5.3,23.1-16.4L654.8,156.9L654.8,156.9z"></path>
  <path d="M690,99.6h21.7v31.5h0.2c4.2-5.9,13.2-9.9,25.3-9.9c20.8,0,36.8,14,36.8,35.4c0,23.1-16.9,34.7-38.3,34.7c-9.1,0-16.4-1.9-24.6-10.7h-0.2v8.2H690V99.6L690,99.6z M731.2,175.4c11,0,20.4-6.5,20.4-19.1s-9.5-19.1-20.4-19.1s-20.3,6.5-20.3,19.1S720.4,175.4,731.2,175.4z"></path>
  <path d="M805.8,168.5c1,5.7,4.9,9.4,16.1,9.4c9.8,0,15.6-2.3,15.6-7.1c0-3.7-1.8-5.2-12.3-6.6l-19.7-2.7c-13.8-1.9-21.7-6.1-21.7-18.7c0-17.8,18.1-22.2,36.1-22.2c30.4,0,37.5,10,39,22.3H835c-1.2-6.8-8.4-8.7-14.6-8.7c-5.7,0-14.2,0.5-14.2,7c0,3.1,1.6,5.2,11,6.1l15,1.6c22,2.3,29.2,8.9,29.2,20.3c0,19.6-21.9,22.3-40.7,22.3c-25,0-37.7-7.3-38.8-22.9L805.8,168.5L805.8,168.5z"></path>

  </g>
  <rect x="562.1" y="159.7" width="21.5" height="29.8" fill="#111827"></rect>
  <rect x="562.1" y="130" width="21.5" height="29.7" fill="#4B5563"></rect>
  <rect x="562.1" y="99.6" width="21.5" height="30.4" fill="#3B5FE0"></rect>
</svg>
